<svg width="19" height="19" viewBox="0 0 19 19" fill="none" xmlns="http://www.w3.org/2000/svg">
<path d="M8.50315 1.93478C8.78523 1.70594 9.13742 1.58105 9.50065 1.58105C9.86388 1.58105 10.2161 1.70594 10.4982 1.93478L16.537 6.82728C16.8116 7.04965 17.0331 7.33048 17.1854 7.64931C17.3377 7.96814 17.4169 8.31694 17.4173 8.67028V15.8333C17.4173 16.2532 17.2505 16.6559 16.9536 16.9529C16.6566 17.2498 16.2539 17.4166 15.834 17.4166H13.459C13.0391 17.4166 12.6363 17.2498 12.3394 16.9529C12.0425 16.6559 11.8757 16.2532 11.8757 15.8333V11.8749C11.8757 11.665 11.7922 11.4636 11.6438 11.3152C11.4953 11.1667 11.2939 11.0833 11.084 11.0833H7.91732C7.70735 11.0833 7.50599 11.1667 7.35752 11.3152C7.20906 11.4636 7.12565 11.665 7.12565 11.8749V15.8333C7.12565 16.2532 6.95884 16.6559 6.6619 16.9529C6.36497 17.2498 5.96224 17.4166 5.54232 17.4166H3.16732C2.74739 17.4166 2.34466 17.2498 2.04773 16.9529C1.7508 16.6559 1.58398 16.2532 1.58398 15.8333V8.67186C1.58391 8.31799 1.66292 7.96858 1.81523 7.64916C1.96755 7.32974 2.18931 7.0484 2.46432 6.8257L8.50315 1.93478Z" fill="#AEB6FF"/>
</svg>
