<svg width="24" height="20" viewBox="0 0 24 20" fill="none" xmlns="http://www.w3.org/2000/svg">
<g clip-path="url(#clip0_161_6720)">
<path d="M23.5879 9.7178C23.4308 9.57078 23.2371 9.53216 23.0303 9.53262C22.1638 9.53262 21.2958 9.50145 20.4316 9.54519C19.9828 9.56798 19.7108 9.46376 19.6231 9.01245C19.6208 8.99943 19.6034 8.98919 19.5931 8.97803C19.4445 8.54905 19.2588 8.13542 19.0717 7.72227C18.9474 7.42775 18.8227 7.13324 18.6984 6.83872C18.6028 6.60702 18.5071 6.37485 18.4114 6.14315C18.2872 5.84817 18.1629 5.55272 18.0386 5.25774C17.9139 4.96323 17.7892 4.66871 17.664 4.3742C17.4848 4.00617 17.1843 3.81448 16.7777 3.81914C16.3876 3.82379 16.109 4.02385 15.9411 4.3742C15.8084 4.6529 15.763 4.95672 15.6837 5.25076C15.5998 5.56296 15.5154 5.87469 15.4314 6.18688C15.3691 6.41905 15.3067 6.65169 15.2443 6.88385C15.1613 7.14301 15.0854 7.40449 15.0427 7.67388C14.8936 8.10053 14.7942 8.54067 14.6816 8.97709C14.6174 9.22555 14.5536 9.47353 14.4894 9.72199C14.3904 10.0109 14.3051 10.304 14.2535 10.6055C14.1494 10.8935 14.0697 11.1876 14.0172 11.4891C13.8816 11.8687 13.7916 12.261 13.6959 12.6513C13.6176 12.9463 13.5393 13.2408 13.4605 13.5358C13.3644 13.8257 13.2847 14.1192 13.2251 14.4184C13.1431 14.5538 13.1736 14.7329 13.053 14.8711C13.0104 14.6938 12.9715 14.5333 12.933 14.3728C12.8931 14.089 12.842 13.808 12.752 13.5349C12.7178 13.2343 12.6549 12.9398 12.5649 12.6513C12.5138 12.2582 12.4223 11.8729 12.3229 11.4895C12.2817 11.1904 12.2184 10.8963 12.1354 10.606C12.0721 10.2961 12.0083 9.98626 11.945 9.67593C11.8634 9.27021 11.7963 8.86171 11.6777 8.46437C11.6247 8.05633 11.5234 7.65759 11.4301 7.25746C11.3208 6.74567 11.2116 6.23388 11.1028 5.72208C11.0085 5.27263 10.9143 4.82365 10.8205 4.3742C10.7422 4.00199 10.6639 3.63024 10.5856 3.25802C10.5391 3.04121 10.4923 2.82486 10.4458 2.60804C10.3994 2.3903 10.3525 2.17255 10.3061 1.95481C10.2864 1.65145 10.1518 1.37183 10.1185 1.07126C10.0937 0.951689 10.0763 0.830255 10.0421 0.713472C9.9211 0.303106 9.59332 0.0313897 9.1938 0.00347365C8.7849 -0.0249077 8.42383 0.190046 8.24611 0.576684C8.17905 0.722312 8.12841 0.87492 8.07026 1.02427C7.96241 1.28901 7.85409 1.55328 7.74623 1.81802C7.63557 2.09625 7.5249 2.37401 7.41424 2.65224C7.31998 2.84859 7.22901 3.04586 7.17508 3.25756C6.99689 3.61954 6.86137 3.99873 6.71601 4.37373C6.55001 4.77433 6.37135 5.16934 6.23817 5.5825C5.93478 6.2711 5.65296 6.96853 5.39458 7.67481C5.14558 8.2215 4.92894 8.78075 4.71698 9.34233C4.66775 9.49075 4.57349 9.53774 4.40937 9.53681C3.25535 9.52844 2.10086 9.5303 0.946835 9.53448C0.502295 9.53635 0.154353 9.81597 0.0530658 10.2329C0.0361846 10.2482 0.0188344 10.264 0.00195312 10.2794C0.00195312 10.3878 0.00195312 10.4962 0.00195312 10.6051C0.00195312 10.6362 0.00195312 10.6669 0.00195312 10.6981C0.18624 11.1615 0.514956 11.4323 1.03077 11.4332C2.41738 11.4365 3.80446 11.4393 5.19107 11.4318C5.75846 11.4291 6.12845 11.1234 6.23677 10.6051C6.28366 10.4967 6.33055 10.3887 6.37791 10.2803C6.52562 10.0198 6.60581 9.73176 6.71132 9.45446C6.96782 8.88637 7.20087 8.30943 7.40908 7.72227C7.71435 7.03414 7.99664 6.33623 8.25314 5.62903C8.45431 5.2596 8.55747 4.85156 8.72159 4.46725C8.78818 4.42864 8.75489 4.31651 8.8482 4.29603C8.87306 4.35326 8.85242 4.42398 8.90635 4.46958C8.957 4.86227 9.0489 5.24611 9.14832 5.62856C9.23835 6.19805 9.36824 6.7587 9.50845 7.31748C9.5666 7.72087 9.65663 8.11774 9.75839 8.51183C9.83248 8.93522 9.91032 9.35768 10.0313 9.77084C10.0646 10.0714 10.1293 10.3659 10.2189 10.6549C10.254 10.9549 10.3159 11.2495 10.4064 11.5379C10.4576 11.9148 10.5359 12.2856 10.6428 12.6508C10.6775 12.9514 10.7398 13.2459 10.8303 13.5344C10.8547 13.8215 10.9302 14.0983 11.0048 14.3756C11.084 14.8297 11.1684 15.2829 11.295 15.7272C11.3011 15.9012 11.3438 16.0678 11.3987 16.232C11.4662 16.6577 11.5534 17.0793 11.6707 17.4948C11.7546 18.041 11.8793 18.5788 12.0088 19.1153C12.0838 19.6368 12.4561 19.99 12.9396 19.9993C13.4441 20.0091 13.8324 19.6592 13.9201 19.1153C14.1011 18.5323 14.2619 17.9442 14.3928 17.3477C14.5147 17.0011 14.6089 16.647 14.6783 16.2865C14.7693 16.0594 14.8289 15.824 14.8683 15.5834C14.9972 15.201 15.1013 14.812 15.1843 14.4175C15.2696 14.1765 15.3414 13.9317 15.3794 13.6782C15.4858 13.3925 15.5627 13.0989 15.6162 12.7993C15.7503 12.4015 15.8605 11.9976 15.9416 11.5859C16.0612 11.3039 16.1043 11.0015 16.178 10.7074C16.3088 10.4283 16.3121 10.1156 16.4148 9.829C16.5315 9.55589 16.5714 9.2623 16.6427 8.97709C16.7791 8.58115 16.8856 8.17683 16.9704 7.7674C17.0009 7.78368 17.0314 7.80043 17.0619 7.81672C17.2035 8.23453 17.3836 8.63652 17.573 9.03432C17.6598 9.30604 17.7695 9.56845 17.9036 9.82016C17.9796 10.0951 18.1015 10.352 18.2267 10.6069C18.4213 11.1704 18.7223 11.4249 19.2719 11.4295C20.5136 11.4402 21.7553 11.4425 22.9966 11.4272C23.4374 11.4216 23.7975 11.2481 23.918 10.7698C23.9255 10.7405 23.9724 10.7209 24.001 10.6967C24.001 10.6656 24.001 10.6348 24.001 10.6037C24.001 10.5106 24.001 10.4176 24.001 10.3245C23.911 10.0914 23.8374 9.84575 23.5879 9.7178Z" fill="#AEB6FF"/>
</g>
<defs>
<clipPath id="clip0_161_6720">
<rect width="24" height="20" fill="white"/>
</clipPath>
</defs>
</svg>
