<svg width="25" height="25" viewBox="0 0 25 25" fill="none" xmlns="http://www.w3.org/2000/svg">
<path d="M22.0242 7.14267H8.92894M6.54799 7.14267H2.97656M22.0242 19.0474H8.92894M6.54799 19.0474H2.97656M16.0718 13.0951H2.97656M22.0242 13.0951H18.4528M7.73847 4.76172C8.0542 4.76172 8.357 4.88714 8.58026 5.1104C8.80352 5.33366 8.92894 5.63646 8.92894 5.95219V8.33315C8.92894 8.64888 8.80352 8.95168 8.58026 9.17494C8.357 9.3982 8.0542 9.52362 7.73847 9.52362C7.42273 9.52362 7.11993 9.3982 6.89667 9.17494C6.67342 8.95168 6.54799 8.64888 6.54799 8.33315V5.95219C6.54799 5.63646 6.67342 5.33366 6.89667 5.1104C7.11993 4.88714 7.42273 4.76172 7.73847 4.76172ZM7.73847 16.6665C8.0542 16.6665 8.357 16.7919 8.58026 17.0152C8.80352 17.2384 8.92894 17.5412 8.92894 17.857V20.2379C8.92894 20.5536 8.80352 20.8564 8.58026 21.0797C8.357 21.303 8.0542 21.4284 7.73847 21.4284C7.42273 21.4284 7.11993 21.303 6.89667 21.0797C6.67342 20.8564 6.54799 20.5536 6.54799 20.2379V17.857C6.54799 17.5412 6.67342 17.2384 6.89667 17.0152C7.11993 16.7919 7.42273 16.6665 7.73847 16.6665ZM17.2623 10.7141C17.578 10.7141 17.8808 10.8395 18.1041 11.0628C18.3273 11.286 18.4528 11.5888 18.4528 11.9046V14.2855C18.4528 14.6013 18.3273 14.9041 18.1041 15.1273C17.8808 15.3506 17.578 15.476 17.2623 15.476C16.9465 15.476 16.6437 15.3506 16.4205 15.1273C16.1972 14.9041 16.0718 14.6013 16.0718 14.2855V11.9046C16.0718 11.5888 16.1972 11.286 16.4205 11.0628C16.6437 10.8395 16.9465 10.7141 17.2623 10.7141Z" stroke="#AEB6FF" stroke-width="1.5" stroke-linecap="round" stroke-linejoin="round"/>
</svg>
