<svg width="241" height="67" viewBox="0 0 241 67" fill="none" xmlns="http://www.w3.org/2000/svg">
<rect width="241" height="67" fill="#C1C1C1"/>
<g id="Test Page" clip-path="url(#clip0_0_1)">
<rect width="1424" height="1005" transform="translate(-1142 -703)" fill="#0C132A"/>
<rect id="Rectangle 9625" x="-101" y="-27" width="361" height="118" rx="20" fill="#151D37"/>
<rect id="Rectangle 9626" width="241" height="67" rx="5" fill="#0C132A"/>
<g id="Group 1261152913">
<rect id="Rectangle 9629" y="31.2041" width="2.19757" height="4.03891" rx="1.09878" fill="#01FDFB"/>
<rect id="Rectangle 9630" x="11.7207" y="31.2041" width="2.19757" height="4.03891" rx="1.09878" fill="#01FDFB"/>
<rect id="Rectangle 9638" x="51.2773" y="31.2041" width="2.19757" height="4.03891" rx="1.09878" fill="#01FDFB"/>
<rect id="Rectangle 9656" x="143.574" y="31.2041" width="2.19757" height="4.03891" rx="1.09878" fill="#01FDFB"/>
<rect id="Rectangle 9658" x="155.295" y="31.2041" width="2.19757" height="4.03891" rx="1.09878" fill="#01FDFB"/>
<rect id="Rectangle 9632" x="17.5801" y="28.063" width="2.19757" height="10.3217" rx="1.09878" fill="#01FDFB"/>
<rect id="Rectangle 9636" x="40.2891" y="26.2681" width="2.19757" height="13.9118" rx="1.09878" fill="#01FDFB"/>
<rect id="Rectangle 9646" x="86.4375" y="28.063" width="2.19757" height="10.3217" rx="1.09878" fill="#01FDFB"/>
<rect id="Rectangle 9637" x="46.1484" y="29.4092" width="2.19757" height="7.62906" rx="1.09878" fill="#01FDFB"/>
<rect id="Rectangle 9643" x="68.8574" y="29.4092" width="2.19757" height="7.62906" rx="1.09878" fill="#01FDFB"/>
<rect id="Rectangle 9655" x="138.447" y="29.4092" width="2.19757" height="7.62906" rx="1.09878" fill="#01FDFB"/>
<rect id="Rectangle 9661" x="172.875" y="30.3071" width="2.19757" height="5.83399" rx="1.09878" fill="#01FDFB"/>
<rect id="Rectangle 9659" x="161.154" y="29.4092" width="2.19757" height="7.62906" rx="1.09878" fill="#01FDFB"/>
<rect id="Rectangle 9633" x="23.4414" y="19.5361" width="2.19757" height="27.3749" rx="1.09878" fill="#01FDFB"/>
<rect id="Rectangle 9644" x="74.7188" y="19.5361" width="2.19757" height="27.3749" rx="1.09878" fill="#01FDFB"/>
<rect id="Rectangle 9654" x="132.586" y="19.5361" width="2.19757" height="27.3749" rx="1.09878" fill="#01FDFB"/>
<rect id="Rectangle 9648" x="98.1582" y="16.8438" width="2.19757" height="32.7601" rx="1.09878" fill="#01FDFB"/>
<rect id="Rectangle 9650" x="109.879" y="16.8438" width="2.19757" height="32.7601" rx="1.09878" fill="#01FDFB"/>
<rect id="Rectangle 9649" x="104.02" y="10.561" width="2.19757" height="45.3256" rx="1.09878" fill="#01FDFB"/>
<rect id="Rectangle 9634" x="28.5684" y="22.6777" width="2.19757" height="21.0921" rx="1.09878" fill="#01FDFB"/>
<rect id="Rectangle 9647" x="92.2988" y="22.6777" width="2.19757" height="21.0921" rx="1.09878" fill="#01FDFB"/>
<rect id="Rectangle 9651" x="115.006" y="22.6777" width="2.19757" height="21.0921" rx="1.09878" fill="#01FDFB"/>
<rect id="Rectangle 9645" x="80.5781" y="24.0244" width="2.19757" height="18.3995" rx="1.09878" fill="#01FDFB"/>
<rect id="Rectangle 9653" x="126.727" y="24.0244" width="2.19757" height="18.3995" rx="1.09878" fill="#01FDFB"/>
<rect id="Rectangle 9660" x="167.016" y="26.2681" width="2.19757" height="13.9118" rx="1.09878" fill="#01FDFB"/>
<rect id="Rectangle 9663" x="183.863" y="19.5361" width="2.19757" height="27.3749" rx="1.09878" fill="#01FDFB"/>
<rect id="Rectangle 9662" x="178.734" y="23.1265" width="2.19757" height="20.1946" rx="1.09878" fill="#01FDFB"/>
<rect id="Rectangle 9664" x="189.723" y="28.063" width="2.19757" height="10.3217" rx="1.09878" fill="#01FDFB"/>
<rect id="Rectangle 9631" x="5.85938" y="32.1021" width="2.19757" height="2.24384" rx="1.09878" fill="#FE3CA0"/>
<rect id="Rectangle 9639" x="57.8711" y="32.1021" width="2.19757" height="2.24384" rx="1.09878" fill="#01FDFB"/>
<rect id="Rectangle 9657" x="149.434" y="32.1021" width="2.19757" height="2.24384" rx="1.09878" fill="#FE3CA0"/>
<rect id="Rectangle 9666" x="201.443" y="32.1021" width="2.19757" height="2.24384" rx="1.09878" fill="#01FDFB"/>
<rect id="Rectangle 9667" x="207.303" y="31.2041" width="2.19757" height="4.03891" rx="1.09878" fill="#01FDFB"/>
<rect id="Rectangle 9665" x="195.582" y="31.2041" width="2.19757" height="4.03891" rx="1.09878" fill="#FE3CA0"/>
<rect id="Rectangle 9640" x="62.998" y="31.2041" width="2.19757" height="4.03891" rx="1.09878" fill="#FE3CA0"/>
<rect id="Rectangle 9652" x="120.867" y="28.063" width="2.19757" height="10.3217" rx="1.09878" fill="#FE3CA0"/>
<rect id="Rectangle 9635" x="34.4277" y="30.3071" width="2.19757" height="5.83399" rx="1.09878" fill="#FE3CA0"/>
</g>
<line id="Line 23" x1="190.5" y1="-1" x2="190.5" y2="67" stroke="#DD1928"/>
<line id="Line 24" x1="241" y1="33.5" y2="33.5" stroke="#01FDFB" stroke-opacity="0.2"/>
</g>
<defs>
<clipPath id="clip0_0_1">
<rect width="1424" height="1005" fill="white" transform="translate(-1142 -703)"/>
</clipPath>
</defs>
</svg>
